<svg width="250" height="30" fill="none" xmlns="http://www.w3.org/2000/svg" viewBox="0 0 250 28"><path fill-rule="evenodd" clip-rule="evenodd" d="M208.389 10.453v3.459H207V5h2.925c.991 0 1.737.244 2.237.732.499.488.749 1.157.749 2.007 0 .842-.256 1.504-.768 1.988-.511.484-1.251.726-2.218.726h-1.536zm1.39-1.174c1.146 0 1.718-.513 1.718-1.54 0-.505-.136-.89-.408-1.155-.272-.265-.709-.397-1.31-.397h-1.39v3.092h1.39zm5.741-.96a2.64 2.64 0 01.975-1.078c.422-.266.91-.398 1.462-.398v1.565h-.414c-.61 0-1.099.154-1.469.46-.37.308-.554.815-.554 1.522v3.522h-1.39V6.957h1.39V8.32zm6.545-1.45c.65 0 1.235.142 1.755.428.52.286.926.699 1.219 1.237.292.539.438 1.17.438 1.894 0 .732-.146 1.367-.438 1.906a3.03 3.03 0 01-1.219 1.237 3.58 3.58 0 01-1.755.429c-.65 0-1.233-.143-1.749-.43a3.063 3.063 0 01-1.219-1.242c-.297-.543-.445-1.176-.445-1.9s.148-1.355.445-1.894c.296-.538.703-.95 1.219-1.237.516-.286 1.099-.429 1.749-.429zm0 1.249a1.99 1.99 0 00-.988.252c-.3.169-.542.427-.725.777-.183.349-.274.776-.274 1.28 0 .514.091.943.274 1.288.183.345.425.602.725.77.301.169.63.253.988.253.357 0 .686-.084.987-.253.301-.168.542-.425.725-.77.183-.345.274-.774.274-1.287 0-.505-.091-.932-.274-1.281-.183-.35-.424-.608-.725-.777a1.988 1.988 0 00-.987-.252zm8.129 4.544v1.25h-.853c-.715 0-1.257-.18-1.627-.537-.37-.357-.555-.953-.555-1.786V8.181h-.963V6.957h.963v-1.73h1.402v1.73h1.621V8.18h-1.621v3.433c0 .396.071.67.213.82.142.152.392.228.75.228h.67zm7.545-2.562c0 .235-.017.441-.049.618h-5.168c.024.715.215 1.245.573 1.59.357.346.8.518 1.328.518.464 0 .856-.122 1.177-.366.321-.244.518-.568.591-.972h1.487c-.09.488-.277.921-.561 1.3a2.911 2.911 0 01-1.109.89 3.529 3.529 0 01-1.524.322c-.65 0-1.225-.143-1.724-.43a3 3 0 01-1.176-1.236c-.285-.539-.427-1.174-.427-1.906 0-.724.142-1.355.427-1.894a3 3 0 011.176-1.237c.499-.286 1.074-.429 1.724-.429.659 0 1.233.141 1.725.423.492.282.869.669 1.134 1.161a3.43 3.43 0 01.396 1.648zm-1.402-.038c.016-.455-.059-.835-.225-1.143a1.599 1.599 0 00-.683-.681 2.045 2.045 0 00-.945-.221c-.544 0-.999.172-1.365.517-.365.345-.564.854-.597 1.528h3.815zm5.728-3.194c.87 0 1.589.238 2.158.713.569.476.922 1.122 1.06 1.938h-1.475c-.081-.438-.278-.78-.591-1.029-.313-.248-.705-.372-1.176-.372-.536 0-.983.195-1.341.587-.357.391-.536.965-.536 1.723 0 .757.179 1.334.536 1.73.358.395.805.592 1.341.592.471 0 .863-.126 1.176-.378.313-.253.51-.598.591-1.035h1.475c-.138.816-.491 1.464-1.06 1.944-.569.48-1.288.719-2.158.719-.65 0-1.224-.143-1.724-.43a3 3 0 01-1.176-1.236c-.285-.539-.427-1.174-.427-1.906 0-.724.142-1.355.427-1.894a3 3 0 011.176-1.237c.5-.286 1.074-.429 1.724-.429zM250 12.662v1.25h-.853c-.715 0-1.258-.18-1.627-.537-.37-.357-.555-.953-.555-1.786V8.181h-.963V6.957h.963v-1.73h1.402v1.73h1.621V8.18h-1.621v3.433c0 .396.071.67.213.82.142.152.392.228.75.228h.67z" fill="#21F7AF"/><mask id="a" maskUnits="userSpaceOnUse" x="0" y="0" width="192" height="17"><path fill-rule="evenodd" clip-rule="evenodd" d="M0 .09h191.787V16.8H0V.09z" fill="#fff"/></mask><g mask="url(#a)"><path fill-rule="evenodd" clip-rule="evenodd" d="M188.06 16.516v-6.407h-4.864v6.407h-3.727V.342h3.727V6.56h4.864V.342h3.727v16.174h-3.727zm-14.624-12.97v12.97h-3.727V3.608h-4.233V.342h12.256v3.266h-4.296v-.063zm-18.288 12.97V.342h3.727V13.25h7.107v3.36l-10.834-.094zm-28.269 0V.342h10.96v3.266h-7.233v3.078h6.096v3.266h-6.096v3.203h7.328v3.36h-11.055zm-6.317 0v-6.407h-4.864v6.407h-3.727V.342h3.727V6.56h4.864V.342h3.727v16.174h-3.727zm-28.048.283c-2.59 0-4.864-.786-6.317-2.921l2.369-2.293a4.551 4.551 0 003.79 2.073c1.074 0 2.369-.44 2.369-1.57 0-.848-.569-1.225-1.358-1.508-.348-.157-2.085-.628-2.59-.785-2.085-.565-3.885-1.79-3.885-4.491 0-3.078 2.306-5.214 5.654-5.214 2.59 0 4.453.786 5.59 2.482L95.704 4.77c-.726-1.005-1.927-1.57-3.158-1.57-1.074 0-2.022.502-2.022 1.57 0 1.005.948 1.225 2.022 1.508.347.157 1.8.502 2.21.628 2.212.628 3.728 1.915 3.728 4.554.063 3.58-2.875 5.338-5.97 5.338zm-8.433-9.83h-1.927l-.442-3.77V.123h2.874V3.2l-.505 3.768zM73.373 3.481h-2.306v4.272h2.306c1.358 0 2.148-.848 2.148-2.136 0-1.508-.916-2.136-2.148-2.136zm2.369 13.034L72.805 10.8h-1.738v5.716H67.34V.342h6.539c1.516 0 2.653.345 3.6 1.068 1.137.942 1.8 2.418 1.8 3.988 0 2.01-.852 3.926-2.81 4.774l3.442 6.344h-4.169zm-21.794 0V.342h10.96v3.266h-7.233v3.078h6.096v3.266h-6.096v3.203h7.328v3.36H53.948zm-6.19-6.407v6.407H44.03v-6.407L39.103.342h3.948l2.938 6.344L48.925.342h3.664l-4.833 9.767zm-33.924 6.407V.342h3.727V13.25h7.107v3.36l-10.833-.094zM6.16 3.482H3.727v4.272H6.16c1.295 0 2.148-.723 2.148-2.199 0-1.382-.853-2.073-2.148-2.073zm.663 7.412H3.727v5.622H0V.342h6.728c3.284 0 5.243 2.198 5.243 5.213 0 2.638-1.485 5.34-5.149 5.34z" fill="#fff"/></g><path fill-rule="evenodd" clip-rule="evenodd" d="M12.372 18.162c.833 0 1.509.678 1.509 1.514s-.676 1.513-1.51 1.513a1.511 1.511 0 01-1.508-1.513c0-.836.676-1.514 1.509-1.514zM7.846 18.162c.666 0 1.207.542 1.207 1.21 0 .67-.54 1.212-1.207 1.212a1.209 1.209 0 01-1.207-1.211c0-.669.54-1.21 1.207-1.21zM180.75 18.162c.833 0 1.509.678 1.509 1.514s-.676 1.513-1.509 1.513a1.51 1.51 0 01-1.508-1.513 1.51 1.51 0 011.508-1.514zM104.708 18.162a1.51 1.51 0 011.509 1.514 1.51 1.51 0 01-1.509 1.513 1.51 1.51 0 01-1.508-1.513 1.51 1.51 0 011.508-1.514zM185.88 18.162c.667 0 1.207.542 1.207 1.21 0 .67-.54 1.212-1.207 1.212a1.21 1.21 0 01-1.207-1.211c0-.669.541-1.21 1.207-1.21zM109.235 18.162a1.21 1.21 0 011.207 1.21 1.21 1.21 0 01-1.207 1.212 1.209 1.209 0 01-1.207-1.211c0-.669.54-1.21 1.207-1.21zM100.786 18.162a1.21 1.21 0 011.207 1.21 1.21 1.21 0 01-1.207 1.212 1.21 1.21 0 01-1.207-1.211c0-.669.54-1.21 1.207-1.21z" fill="#21F7AF"/><mask id="b" maskUnits="userSpaceOnUse" x="190" y="18" width="3" height="3"><path fill-rule="evenodd" clip-rule="evenodd" d="M190.826 18.225h2.147v2.288h-2.147v-2.288z" fill="#fff"/></mask><g mask="url(#b)"><path fill-rule="evenodd" clip-rule="evenodd" d="M191.899 18.225c.593 0 1.074.512 1.074 1.144 0 .632-.481 1.144-1.074 1.144-.592 0-1.073-.512-1.073-1.144 0-.632.481-1.144 1.073-1.144z" fill="#21F7AF"/></g><mask id="c" maskUnits="userSpaceOnUse" x="16" y="0" width="163" height="28"><path fill-rule="evenodd" clip-rule="evenodd" d="M16.306.67H178.59v26.442H16.306V.67z" fill="#fff"/></mask><g mask="url(#c)"><path fill-rule="evenodd" clip-rule="evenodd" d="M176.984 17.523h-19.585c-.567 0-1.07.345-1.354.943l-1.291 2.987-7.084-19.777c-.221-.63-.787-1.007-1.354-1.007-.567 0-1.134.44-1.354 1.007l-5.731 15.783h-25.599c-.787 0-1.511.724-1.511 1.573s.63 1.572 1.511 1.572h26.607c.567 0 1.133-.44 1.354-1.006l4.723-12.986 7.021 19.494c.221.566.725 1.006 1.354 1.006h.063c.567 0 1.071-.346 1.354-.943l2.299-5.502h18.671c.788 0 1.512-.723 1.512-1.572-.095-.85-.819-1.572-1.606-1.572zm-79.567 0H44.865c-.567 0-1.07.345-1.354.943l-1.29 2.987-7.085-19.777c-.22-.63-.788-1.007-1.354-1.007-.567 0-1.134.44-1.354 1.007l-5.731 15.783h-8.88c-.786 0-1.51.724-1.51 1.573s.63 1.572 1.51 1.572h9.888c.566 0 1.133-.44 1.354-1.006l4.723-12.986 7.021 19.494c.22.566.724 1.006 1.354 1.006h.063c.567 0 1.07-.346 1.354-.943l2.299-5.502H97.51c.787 0 1.511-.723 1.511-1.572-.188-.85-.818-1.572-1.605-1.572z" fill="#21F7AF"/></g></svg>