<?xml version="1.0" encoding="iso-8859-1"?>
<!-- Generator: Adobe Illustrator 19.0.0, SVG Export Plug-In . SVG Version: 6.00 Build 0)  -->
<svg version="1.1" id="Layer_1" xmlns="http://www.w3.org/2000/svg" xmlns:xlink="http://www.w3.org/1999/xlink" x="0px" y="0px"
	 viewBox="0 0 512 512" style="enable-background:new 0 0 512 512;" xml:space="preserve">
<circle style="fill:#00C3FF;" cx="256" cy="215.92" r="208.42"/>
<path style="fill:#00AAF0;" d="M360.21,368.226c-115.107,0-208.419-93.313-208.419-208.419c0-57.849,23.581-110.18,61.639-147.942
	C118.741,31.519,47.581,115.403,47.581,215.919c0,115.107,93.313,208.419,208.419,208.419c57.258,0,109.111-23.102,146.781-60.478
	C389.036,366.714,374.8,368.226,360.21,368.226z"/>
<path style="fill:#D5DCED;" d="M371.167,432.696l-67.07-24.389L256,424.339l-48.097-16.032l-67.07,24.389
	c-12.672,4.608-21.107,16.651-21.107,30.134v41.67h272.548v-41.67C392.274,449.347,383.839,437.304,371.167,432.696z"/>
<path style="fill:#C7CFE2;" d="M383.646,440.983c5.413,5.81,8.628,13.547,8.628,21.847v41.67h-48.097v-10.767
	c0-8.504,3.378-16.66,9.391-22.673L383.646,440.983z"/>
<path style="fill:#5A4146;" d="M344.177,242.992v-67.153c0-8.854-7.178-16.032-16.032-16.032h-96.194
	c-35.417,0-64.129,28.712-64.129,64.129v19.056c0,8.616,1.389,17.175,4.114,25.349l2.668,8.005c0.817,2.452,1.234,5.02,1.234,7.605
	v4.114h160.323v-4.114c0-2.585,0.417-5.153,1.234-7.605l2.668-8.005C342.788,260.167,344.177,251.608,344.177,242.992z"/>
<path style="fill:#694B4B;" d="M207.903,192.372c0,17.985,14.58,32.566,32.566,32.566h4.509l2.177,63.127h89.007v-4.114
	c0-2.585,0.417-5.152,1.234-7.605l2.668-8.005c2.725-8.174,4.114-16.733,4.114-25.349v-67.153c0-8.855-7.178-16.032-16.032-16.032
	H240.47C222.483,159.806,207.903,174.387,207.903,192.372z"/>
<rect x="207.9" y="352.19" style="fill:#E6AF78;" width="96.19" height="72.14"/>
<path style="fill:#D29B6E;" d="M207.903,388.472c14.398,7.511,30.734,11.818,48.097,11.818s33.699-4.307,48.097-11.818v-36.279
	h-96.194L207.903,388.472L207.903,388.472z"/>
<g>
	<path style="fill:#C7CFE2;" d="M256,424.339l-25.566,25.566c-3.436,3.436-9.116,3.049-12.054-0.822l-26.509-34.929l6.934-14.612
		c2.046-4.312,7.383-5.892,11.447-3.388L256,424.339z"/>
	<path style="fill:#C7CFE2;" d="M256,424.339l25.566,25.566c3.436,3.436,9.116,3.049,12.054-0.822l26.509-34.929l-6.934-14.612
		c-2.046-4.312-7.383-5.892-11.447-3.388L256,424.339z"/>
</g>
<path style="fill:#F0C087;" d="M256,376.242L256,376.242c-44.272,0-80.161-35.889-80.161-80.161v-8.016l13.34-8.893
	c6.69-4.46,10.709-11.969,10.709-20.009v-27.21c0,0,64.13-24.049,112.226,16.033c0,0,0,5.458,0,11.173
	c0,8.041,4.018,15.553,10.709,20.014l13.339,8.893v8.016C336.161,340.353,300.272,376.242,256,376.242z"/>
<path style="fill:#C7CFE2;" d="M128.354,440.983c-5.413,5.81-8.628,13.547-8.628,21.847v41.67h48.097v-10.767
	c0-8.504-3.378-16.66-9.391-22.673L128.354,440.983z"/>
<path style="fill:#E6AF78;" d="M238.036,251.22c17.431-2.186,47.943-3.441,74.077,7.938c0-3.214,0-11.173,0-11.174
	c-48.097-40.082-112.226-16.033-112.226-16.033v27.21c0,8.041-4.018,15.549-10.709,20.01l-13.339,8.893v8.016
	c0,40.986,30.779,74.728,70.474,79.52h0.002c-13.833-14.404-22.379-33.924-22.379-55.471v-52.986
	C223.935,259.02,229.976,252.23,238.036,251.22z"/>
<path d="M207.387,238.728c0-0.254,0.167-0.47,0.388-0.504c9.664-1.456,28.838-3.701,48.706-2.379
	c23.378,1.557,40.311,7.425,50.328,17.442c2.929,2.929,7.678,2.929,10.606,0c2.929-2.929,2.929-7.678,0-10.606
	c-28.354-28.355-87.684-22.935-111.877-19.289c-7.621,1.149-13.152,7.599-13.152,15.336V256c0,4.142,3.358,7.5,7.5,7.5
	s7.5-3.358,7.5-7.5v-17.272H207.387z"/>
<path d="M373.73,425.647l-46.125-16.773c0.156-2.062-0.54-4.159-2.044-5.739l-13.965-14.672v-24.628
	c1.476-1.216,2.932-2.465,4.341-3.787c17.619-16.514,27.723-39.83,27.723-63.968v-19.669c5.32-11.577,8.016-23.828,8.016-36.443
	v-80.161c0-4.142-3.358-7.5-7.5-7.5H231.952c-39.496,0-71.629,32.133-71.629,71.629v16.032c0,12.616,2.696,24.867,8.016,36.443
	v16.924c0,28.026,12.461,53.275,32.064,69.921v25.208l-13.965,14.672c-1.504,1.58-2.2,3.677-2.044,5.739l-46.125,16.773
	c-15.578,5.665-26.044,20.607-26.044,37.182v41.67c0,4.142,3.358,7.5,7.5,7.5s7.5-3.358,7.5-7.5v-41.67
	c0-10.291,6.498-19.568,16.17-23.085l48.631-17.684l20.245,30.367c2.588,3.883,6.737,6.374,11.381,6.833
	c0.518,0.051,1.033,0.077,1.546,0.077c4.097,0,8.022-1.613,10.954-4.545l12.347-12.347V504.5c0,4.142,3.358,7.5,7.5,7.5
	c4.142,0,7.5-3.358,7.5-7.5v-62.055l12.347,12.347c2.933,2.933,6.857,4.545,10.954,4.545c0.513,0,1.029-0.025,1.546-0.077
	c4.644-0.46,8.792-2.951,11.381-6.833l20.245-30.367l48.631,17.684c9.672,3.517,16.17,12.794,16.17,23.085v41.67
	c0,4.142,3.358,7.5,7.5,7.5s7.5-3.358,7.5-7.5v-41.67C399.774,446.254,389.308,431.312,373.73,425.647z M183.339,293.335v-18.602
	c0-1.129-0.255-2.244-0.746-3.261c-4.824-9.99-7.27-20.589-7.27-31.504v-16.032c0-31.225,25.404-56.629,56.629-56.629h104.726
	v72.661c0,10.915-2.446,21.515-7.27,31.504c-0.491,1.017-0.746,2.132-0.746,3.261v21.347c0,20.302-8.162,39.133-22.981,53.024
	c-14.807,13.879-34.165,20.794-54.532,19.479C213.125,366.123,183.339,333.069,183.339,293.335z M250.179,383.553
	c1.976,0.128,3.94,0.191,5.898,0.191c14.334-0.001,28.13-3.426,40.52-9.929v13.689L256,415.254l-40.597-27.75v-13.989
	C225.909,379.192,237.669,382.743,250.179,383.553z M225.546,444.186c-0.052,0.051-0.177,0.171-0.416,0.148
	c-0.244-0.024-0.338-0.167-0.379-0.227l-23.315-34.973l7.5-7.88l35.366,24.174L225.546,444.186z M287.248,444.107
	c-0.041,0.061-0.135,0.203-0.379,0.227c-0.241,0.022-0.364-0.097-0.416-0.148l-18.757-18.757l35.366-24.174l7.5,7.88
	L287.248,444.107z"/>
<path d="M167.823,480.968c-4.142,0-7.5,3.358-7.5,7.5V504.5c0,4.142,3.358,7.5,7.5,7.5s7.5-3.358,7.5-7.5v-16.032
	C175.323,484.326,171.965,480.968,167.823,480.968z"/>
<path d="M344.177,480.968c-4.142,0-7.5,3.358-7.5,7.5V504.5c0,4.142,3.358,7.5,7.5,7.5s7.5-3.358,7.5-7.5v-16.032
	C351.677,484.326,348.319,480.968,344.177,480.968z"/>
<path d="M408.678,63.241C367.896,22.459,313.674,0,256,0S144.104,22.459,103.322,63.241s-63.241,95.004-63.241,152.678
	c0,80.81,44.554,154.227,116.274,191.6c1.107,0.577,2.292,0.85,3.459,0.85c2.706,0,5.32-1.47,6.657-4.036
	c1.915-3.673,0.488-8.203-3.185-10.117c-27.638-14.402-50.936-34.56-68.755-58.572h41.694c9.13,20.587,20.624,38.852,33.821,53.614
	c2.76,3.088,7.502,3.354,10.59,0.593c3.088-2.761,3.354-7.502,0.593-10.59c-11.015-12.321-20.573-27.12-28.47-43.686
	c3.683-0.477,6.531-3.618,6.531-7.43c0-4.142-3.358-7.5-7.5-7.5h-5.506c-11.449-29.108-18.114-62.554-18.957-97.226h8.431
	c4.142,0,7.5-3.358,7.5-7.5s-3.358-7.5-7.5-7.5h-8.434c0.84-35.518,7.611-68.71,18.819-97.226H248.5v16.548
	c0,4.142,3.358,7.5,7.5,7.5c4.142,0,7.5-3.358,7.5-7.5v-16.548h102.356c11.208,28.516,17.979,61.708,18.819,97.226h-8.434
	c-4.142,0-7.5,3.358-7.5,7.5s3.358,7.5,7.5,7.5h8.431c-0.843,34.671-7.508,68.118-18.957,97.226h-5.506c-4.142,0-7.5,3.358-7.5,7.5
	c0,3.813,2.848,6.954,6.531,7.43c-7.896,16.567-17.454,31.365-28.47,43.686c-2.761,3.088-2.496,7.829,0.593,10.59
	c1.431,1.279,3.217,1.909,4.996,1.909c2.061,0,4.112-0.844,5.594-2.501c13.197-14.762,24.691-33.026,33.821-53.614h41.563
	c-16.35,21.988-37.085,40.552-60.882,54.318c-3.585,2.074-4.811,6.662-2.737,10.248c2.074,3.585,6.662,4.81,10.248,2.737
	c32.23-18.645,59.261-45.456,78.171-77.537c19.484-33.054,29.782-70.915,29.782-109.492
	C471.919,158.245,449.46,104.023,408.678,63.241z M417.252,96.193h-41.445c-4.997-11.267-10.728-21.903-17.169-31.753
	c-9.447-14.449-20.019-26.634-31.428-36.392C363.345,41.791,394.526,65.664,417.252,96.193z M184.79,28.049
	c-11.409,9.757-21.98,21.943-31.428,36.392c-6.441,9.85-12.172,20.485-17.169,31.753H94.748
	C117.474,65.664,148.655,41.791,184.79,28.049z M127.869,314.212c0.735,2.166,1.503,4.306,2.287,6.433H84.414
	c-17.617-28.868-27.904-62.192-29.193-97.226h57.095C113.023,255.332,118.241,285.842,127.869,314.212z M112.32,208.419H55.235
	c1.311-35.518,11.875-68.71,29.363-97.226h45.516C119.226,140.73,113.097,173.881,112.32,208.419z M152.65,96.193
	c22.093-46.306,56.648-77.313,95.85-80.844v80.844H152.65z M263.5,96.193V15.35c39.202,3.531,73.757,34.538,95.85,80.844
	L263.5,96.193L263.5,96.193z M381.887,111.193h45.516c17.488,28.516,28.052,61.708,29.363,97.226H399.68
	C398.903,173.881,392.774,140.73,381.887,111.193z M429.215,317.794c-0.566,0.96-1.162,1.901-1.743,2.851h-45.627
	c0.784-2.127,1.552-4.268,2.287-6.433c9.628-28.37,14.845-58.88,15.552-90.792h57.085
	C455.53,256.71,446.075,289.191,429.215,317.794z"/>
<g>
</g>
<g>
</g>
<g>
</g>
<g>
</g>
<g>
</g>
<g>
</g>
<g>
</g>
<g>
</g>
<g>
</g>
<g>
</g>
<g>
</g>
<g>
</g>
<g>
</g>
<g>
</g>
<g>
</g>
</svg>
